<svg id="Layer_1" data-name="Layer 1" xmlns="http://www.w3.org/2000/svg" xmlns:xlink="http://www.w3.org/1999/xlink" viewBox="0 0 1366 768"><defs><style>.cls-1,.cls-10,.cls-11,.cls-12,.cls-13,.cls-14,.cls-15,.cls-16,.cls-17,.cls-18,.cls-19,.cls-2,.cls-20,.cls-21,.cls-22,.cls-23,.cls-24,.cls-25,.cls-26,.cls-27,.cls-28,.cls-29,.cls-3,.cls-30,.cls-31,.cls-32,.cls-33,.cls-34,.cls-4,.cls-5,.cls-6,.cls-7,.cls-8,.cls-9{fill:none;stroke-miterlimit:10;}.cls-1{stroke:url(#linear-gradient);}.cls-2{stroke:url(#linear-gradient-2);}.cls-3{stroke:url(#linear-gradient-3);}.cls-4{stroke:url(#linear-gradient-4);}.cls-5{stroke:url(#linear-gradient-5);}.cls-6{stroke:url(#linear-gradient-6);}.cls-7{stroke:url(#linear-gradient-7);}.cls-8{stroke:url(#linear-gradient-8);}.cls-9{stroke:url(#linear-gradient-9);}.cls-10{stroke:url(#linear-gradient-10);}.cls-11{stroke:url(#linear-gradient-11);}.cls-12{stroke:url(#linear-gradient-12);}.cls-13{stroke:url(#linear-gradient-13);}.cls-14{stroke:url(#linear-gradient-14);}.cls-15{stroke:url(#linear-gradient-15);}.cls-16{stroke:url(#linear-gradient-16);}.cls-17{stroke:url(#linear-gradient-17);}.cls-18{stroke:url(#linear-gradient-18);}.cls-19{stroke:url(#linear-gradient-19);}.cls-20{stroke:url(#linear-gradient-20);}.cls-21{stroke:url(#linear-gradient-21);}.cls-22{stroke:url(#linear-gradient-22);}.cls-23{stroke:url(#linear-gradient-23);}.cls-24{stroke:url(#linear-gradient-24);}.cls-25{stroke:url(#linear-gradient-25);}.cls-26{stroke:url(#linear-gradient-26);}.cls-27{stroke:url(#linear-gradient-27);}.cls-28{stroke:url(#linear-gradient-28);}.cls-29{stroke:url(#linear-gradient-29);}.cls-30{stroke:url(#linear-gradient-30);}.cls-31{stroke:url(#linear-gradient-31);}.cls-32{stroke:url(#linear-gradient-32);}.cls-33{stroke:url(#linear-gradient-33);}.cls-34{stroke:url(#linear-gradient-34);}</style><linearGradient id="linear-gradient" x1="57.62" y1="122.88" x2="103.91" y2="122.88" gradientTransform="translate(-56.68 77.74) rotate(-45)" gradientUnits="userSpaceOnUse"><stop offset="0" stop-color="#fdd819"/><stop offset="1" stop-color="#e80505"/></linearGradient><linearGradient id="linear-gradient-2" x1="32.16" y1="291.17" x2="78.45" y2="291.17" xlink:href="#linear-gradient"/><linearGradient id="linear-gradient-3" x1="442.28" y1="855.44" x2="488.58" y2="855.44" xlink:href="#linear-gradient"/><linearGradient id="linear-gradient-4" x1="471.28" y1="1065.45" x2="517.57" y2="1065.45" xlink:href="#linear-gradient"/><linearGradient id="linear-gradient-5" x1="638.15" y1="1191.32" x2="684.45" y2="1191.32" xlink:href="#linear-gradient"/><linearGradient id="linear-gradient-6" x1="211.77" y1="1054.85" x2="258.06" y2="1054.85" xlink:href="#linear-gradient"/><linearGradient id="linear-gradient-7" x1="351.07" y1="1185.66" x2="397.36" y2="1185.66" xlink:href="#linear-gradient"/><linearGradient id="linear-gradient-8" x1="343.29" y1="985.55" x2="389.58" y2="985.55" xlink:href="#linear-gradient"/><linearGradient id="linear-gradient-9" x1="633.91" y1="965.04" x2="680.2" y2="965.04" xlink:href="#linear-gradient"/><linearGradient id="linear-gradient-10" x1="672.09" y1="687.86" x2="718.39" y2="687.86" xlink:href="#linear-gradient"/><linearGradient id="linear-gradient-11" x1="837.56" y1="892.92" x2="883.85" y2="892.92" xlink:href="#linear-gradient"/><linearGradient id="linear-gradient-12" x1="-73.2" y1="458.75" x2="-26.9" y2="458.75" xlink:href="#linear-gradient"/><linearGradient id="linear-gradient-13" x1="-337.65" y1="505.42" x2="-291.36" y2="505.42" xlink:href="#linear-gradient"/><linearGradient id="linear-gradient-14" x1="-190.58" y1="420.57" x2="-144.28" y2="420.57" xlink:href="#linear-gradient"/><linearGradient id="linear-gradient-15" x1="270.43" y1="-41.16" x2="330.47" y2="-41.16" gradientTransform="matrix(-0.5, 0.87, -0.87, -0.5, 834.61, -171.07)" xlink:href="#linear-gradient"/><linearGradient id="linear-gradient-16" x1="692.04" y1="-92.9" x2="752.09" y2="-92.9" gradientTransform="matrix(-0.5, 0.87, -0.87, -0.5, 834.61, -171.07)" xlink:href="#linear-gradient"/><linearGradient id="linear-gradient-17" x1="874" y1="-121.74" x2="934.04" y2="-121.74" gradientTransform="matrix(-0.5, 0.87, -0.87, -0.5, 834.61, -171.07)" xlink:href="#linear-gradient"/><linearGradient id="linear-gradient-18" x1="785.9" y1="37.67" x2="845.94" y2="37.67" gradientTransform="matrix(-0.5, 0.87, -0.87, -0.5, 834.61, -171.07)" xlink:href="#linear-gradient"/><linearGradient id="linear-gradient-19" x1="211.25" y1="-295.67" x2="271.29" y2="-295.67" gradientTransform="matrix(-0.5, 0.87, -0.87, -0.5, 834.61, -171.07)" xlink:href="#linear-gradient"/><linearGradient id="linear-gradient-20" x1="100.51" y1="-595.46" x2="160.56" y2="-595.46" gradientTransform="matrix(-0.5, 0.87, -0.87, -0.5, 834.61, -171.07)" xlink:href="#linear-gradient"/><linearGradient id="linear-gradient-21" x1="528.47" y1="219.78" x2="588.51" y2="219.78" gradientTransform="matrix(-0.5, 0.87, -0.87, -0.5, 834.61, -171.07)" xlink:href="#linear-gradient"/><linearGradient id="linear-gradient-22" x1="378.22" y1="239.55" x2="438.27" y2="239.55" gradientTransform="matrix(-0.5, 0.87, -0.87, -0.5, 834.61, -171.07)" xlink:href="#linear-gradient"/><linearGradient id="linear-gradient-23" x1="495.94" y1="379.43" x2="555.98" y2="379.43" gradientTransform="matrix(-0.5, 0.87, -0.87, -0.5, 834.61, -171.07)" xlink:href="#linear-gradient"/><linearGradient id="linear-gradient-24" x1="68" y1="368" x2="126" y2="368" gradientTransform="matrix(1, 0, 0, 1, 0, 0)" xlink:href="#linear-gradient"/><linearGradient id="linear-gradient-25" x1="593" y1="210" x2="651" y2="210" gradientTransform="matrix(1, 0, 0, 1, 0, 0)" xlink:href="#linear-gradient"/><linearGradient id="linear-gradient-26" x1="497" y1="139" x2="555" y2="139" gradientTransform="matrix(1, 0, 0, 1, 0, 0)" xlink:href="#linear-gradient"/><linearGradient id="linear-gradient-27" x1="337" y1="298" x2="395" y2="298" gradientTransform="matrix(1, 0, 0, 1, 0, 0)" xlink:href="#linear-gradient"/><linearGradient id="linear-gradient-28" x1="243" y1="654" x2="301" y2="654" gradientTransform="matrix(1, 0, 0, 1, 0, 0)" xlink:href="#linear-gradient"/><linearGradient id="linear-gradient-29" x1="497" y1="339" x2="555" y2="339" gradientTransform="matrix(1, 0, 0, 1, 0, 0)" xlink:href="#linear-gradient"/><linearGradient id="linear-gradient-30" x1="721" y1="506" x2="779" y2="506" gradientTransform="matrix(1, 0, 0, 1, 0, 0)" xlink:href="#linear-gradient"/><linearGradient id="linear-gradient-31" x1="644" y1="654" x2="702" y2="654" gradientTransform="matrix(1, 0, 0, 1, 0, 0)" xlink:href="#linear-gradient"/><linearGradient id="linear-gradient-32" x1="1199" y1="654" x2="1257" y2="654" gradientTransform="matrix(1, 0, 0, 1, 0, 0)" xlink:href="#linear-gradient"/><linearGradient id="linear-gradient-33" x1="615" y1="368" x2="673" y2="368" gradientTransform="matrix(1, 0, 0, 1, 0, 0)" xlink:href="#linear-gradient"/><linearGradient id="linear-gradient-34" x1="765" y1="198" x2="823" y2="198" gradientTransform="matrix(1, 0, 0, 1, 0, 0)" xlink:href="#linear-gradient"/></defs><title>Hero-image</title><polygon class="cls-1" points="72.55 92.75 87.15 97.7 99.5 88.48 99.3 103.89 111.89 112.79 97.17 117.37 92.59 132.08 83.7 119.5 68.29 119.7 77.5 107.35 72.55 92.75"/><polygon class="cls-2" points="173.55 229.75 188.15 234.7 200.5 225.48 200.3 240.89 212.89 249.79 198.17 254.37 193.59 269.08 184.7 256.5 169.29 256.7 178.5 244.35 173.55 229.75"/><polygon class="cls-3" points="862.55 338.75 877.15 343.7 889.5 334.48 889.3 349.89 901.89 358.79 887.17 363.37 882.59 378.08 873.7 365.5 858.29 365.7 867.5 353.35 862.55 338.75"/><polygon class="cls-4" points="1031.55 466.75 1046.15 471.7 1058.5 462.48 1058.3 477.89 1070.89 486.79 1056.17 491.37 1051.59 506.08 1042.7 493.5 1027.29 493.7 1036.5 481.35 1031.55 466.75"/><polygon class="cls-5" points="1238.55 437.75 1253.15 442.7 1265.5 433.48 1265.3 448.89 1277.89 457.79 1263.17 462.37 1258.59 477.08 1249.7 464.5 1234.29 464.7 1243.5 452.35 1238.55 437.75"/><polygon class="cls-6" points="840.55 642.75 855.15 647.7 867.5 638.48 867.3 653.89 879.89 662.79 865.17 667.37 860.59 682.08 851.7 669.5 836.29 669.7 845.5 657.35 840.55 642.75"/><polygon class="cls-7" points="1031.55 636.75 1046.15 641.7 1058.5 632.48 1058.3 647.89 1070.89 656.79 1056.17 661.37 1051.59 676.08 1042.7 663.5 1027.29 663.7 1036.5 651.35 1031.55 636.75"/><polygon class="cls-8" points="884.55 500.75 899.15 505.7 911.5 496.48 911.3 511.89 923.89 520.79 909.17 525.37 904.59 540.08 895.7 527.5 880.29 527.7 889.5 515.35 884.55 500.75"/><polygon class="cls-9" points="1075.55 280.75 1090.15 285.7 1102.5 276.48 1102.3 291.89 1114.89 300.79 1100.17 305.37 1095.59 320.08 1086.7 307.5 1071.29 307.7 1080.5 295.35 1075.55 280.75"/><polygon class="cls-10" points="906.55 57.75 921.15 62.7 933.5 53.48 933.3 68.89 945.89 77.79 931.17 82.37 926.59 97.08 917.7 84.5 902.29 84.7 911.5 72.35 906.55 57.75"/><polygon class="cls-11" points="1168.55 85.75 1183.15 90.7 1195.5 81.48 1195.3 96.89 1207.89 105.79 1193.17 110.37 1188.59 125.08 1179.7 112.5 1164.29 112.7 1173.5 100.35 1168.55 85.75"/><polygon class="cls-12" points="217.55 422.75 232.15 427.7 244.5 418.48 244.3 433.89 256.89 442.79 242.17 447.37 237.59 462.08 228.7 449.5 213.29 449.7 222.5 437.35 217.55 422.75"/><polygon class="cls-13" points="63.55 642.75 78.15 647.7 90.5 638.48 90.3 653.89 102.89 662.79 88.17 667.37 83.59 682.08 74.7 669.5 59.29 669.7 68.5 657.35 63.55 642.75"/><polygon class="cls-14" points="107.55 478.75 122.15 483.7 134.5 474.48 134.3 489.89 146.89 498.79 132.17 503.37 127.59 518.08 118.7 505.5 103.29 505.7 112.5 493.35 107.55 478.75"/><polygon class="cls-15" points="741.68 122.21 712.52 71.71 683.37 122.21 741.68 122.21"/><polygon class="cls-16" points="575.68 513.21 546.52 462.71 517.37 513.21 575.68 513.21"/><polygon class="cls-17" points="509.68 685.21 480.52 634.71 451.37 685.21 509.68 685.21"/><polygon class="cls-18" points="415.68 529.21 386.52 478.71 357.37 529.21 415.68 529.21"/><polygon class="cls-19" points="991.68 198.21 962.52 147.71 933.37 198.21 991.68 198.21"/><polygon class="cls-20" points="1306.68 252.21 1277.53 201.71 1248.37 252.21 1306.68 252.21"/><polygon class="cls-21" points="386.68 215.21 357.52 164.71 328.37 215.21 386.68 215.21"/><polygon class="cls-22" points="444.68 75.21 415.52 24.71 386.37 75.21 444.68 75.21"/><polygon class="cls-23" points="264.68 107.21 235.53 56.71 206.37 107.21 264.68 107.21"/><circle class="cls-24" cx="97" cy="368" r="28.5"/><circle class="cls-25" cx="622" cy="210" r="28.5"/><circle class="cls-26" cx="526" cy="139" r="28.5"/><circle class="cls-27" cx="366" cy="298" r="28.5"/><circle class="cls-28" cx="272" cy="654" r="28.5"/><circle class="cls-29" cx="526" cy="339" r="28.5"/><circle class="cls-30" cx="750" cy="506" r="28.5"/><circle class="cls-31" cx="673" cy="654" r="28.5"/><circle class="cls-32" cx="1228" cy="654" r="28.5"/><circle class="cls-33" cx="644" cy="368" r="28.5"/><circle class="cls-34" cx="794" cy="198" r="28.5"/></svg>